<svg xmlns="http://www.w3.org/2000/svg" xmlns:xlink="http://www.w3.org/1999/xlink" width="100" zoomAndPan="magnify" viewBox="0 0 75 74.999997" height="100" preserveAspectRatio="xMidYMid meet" version="1.2"><defs><clipPath id="2db693b66c"><path d="M 5.175781 5.175781 L 69.675781 5.175781 L 69.675781 69.675781 L 5.175781 69.675781 Z M 5.175781 5.175781 "/></clipPath><clipPath id="34a37dc9eb"><path d="M 10.484375 10.484375 L 64.484375 10.484375 L 64.484375 64.484375 L 10.484375 64.484375 Z M 10.484375 10.484375 "/></clipPath><clipPath id="9647502188"><path d="M 15.253906 15.253906 L 59.503906 15.253906 L 59.503906 59.503906 L 15.253906 59.503906 Z M 15.253906 15.253906 "/></clipPath></defs><g id="e2db19f810"><path style=" stroke:none;fill-rule:nonzero;fill:#ff3131;fill-opacity:1;" d="M 37.5 0 C 16.800781 0 0 16.800781 0 37.5 C 0 58.199219 16.800781 75 37.5 75 C 58.199219 75 75 58.199219 75 37.5 C 75 16.800781 58.199219 0 37.5 0 Z M 37.5 2.082031 C 57.074219 2.082031 72.917969 17.925781 72.917969 37.5 C 72.917969 57.074219 57.074219 72.917969 37.5 72.917969 C 17.925781 72.917969 2.082031 57.074219 2.082031 37.5 C 2.082031 17.925781 17.925781 2.082031 37.5 2.082031 Z M 37.5 2.082031 "/><g clip-rule="nonzero" clip-path="url(#2db693b66c)"><path style=" stroke:none;fill-rule:nonzero;fill:#ff3131;fill-opacity:1;" d="M 37.425781 5.175781 C 19.625 5.175781 5.175781 19.625 5.175781 37.425781 C 5.175781 55.226562 19.625 69.675781 37.425781 69.675781 C 55.226562 69.675781 69.675781 55.226562 69.675781 37.425781 C 69.675781 19.625 55.226562 5.175781 37.425781 5.175781 Z M 37.425781 6.964844 C 54.257812 6.964844 67.882812 20.59375 67.882812 37.425781 C 67.882812 54.257812 54.257812 67.882812 37.425781 67.882812 C 20.59375 67.882812 6.964844 54.257812 6.964844 37.425781 C 6.964844 20.59375 20.59375 6.964844 37.425781 6.964844 Z M 37.425781 6.964844 "/></g><g clip-rule="nonzero" clip-path="url(#34a37dc9eb)"><path style=" stroke:none;fill-rule:nonzero;fill:#ff3131;fill-opacity:1;" d="M 37.484375 10.484375 C 22.582031 10.484375 10.484375 22.582031 10.484375 37.484375 C 10.484375 52.386719 22.582031 64.484375 37.484375 64.484375 C 52.386719 64.484375 64.484375 52.386719 64.484375 37.484375 C 64.484375 22.582031 52.386719 10.484375 37.484375 10.484375 Z M 37.484375 11.984375 C 51.578125 11.984375 62.984375 23.390625 62.984375 37.484375 C 62.984375 51.578125 51.578125 62.984375 37.484375 62.984375 C 23.390625 62.984375 11.984375 51.578125 11.984375 37.484375 C 11.984375 23.390625 23.390625 11.984375 37.484375 11.984375 Z M 37.484375 11.984375 "/></g><g clip-rule="nonzero" clip-path="url(#9647502188)"><path style=" stroke:none;fill-rule:nonzero;fill:#ff3131;fill-opacity:1;" d="M 37.378906 15.253906 C 25.167969 15.253906 15.253906 25.167969 15.253906 37.378906 C 15.253906 49.59375 25.167969 59.503906 37.378906 59.503906 C 49.59375 59.503906 59.503906 49.59375 59.503906 37.378906 C 59.503906 25.167969 49.59375 15.253906 37.378906 15.253906 Z M 37.378906 16.484375 C 48.929688 16.484375 58.277344 25.832031 58.277344 37.378906 C 58.277344 48.929688 48.929688 58.277344 37.378906 58.277344 C 25.832031 58.277344 16.484375 48.929688 16.484375 37.378906 C 16.484375 25.832031 25.832031 16.484375 37.378906 16.484375 Z M 37.378906 16.484375 "/></g></g></svg>