<svg xmlns="http://www.w3.org/2000/svg" xmlns:xlink="http://www.w3.org/1999/xlink" width="100" zoomAndPan="magnify" viewBox="0 0 75 74.999997" height="100" preserveAspectRatio="xMidYMid meet" version="1.2"><defs><clipPath id="86cfbde767"><path d="M 48.003906 54 L 75 54 L 75 56 L 48.003906 56 Z M 48.003906 54 "/></clipPath><clipPath id="e97d84691d"><path d="M 48.003906 49 L 75 49 L 75 51 L 48.003906 51 Z M 48.003906 49 "/></clipPath><clipPath id="ad7111fb78"><path d="M 48.003906 65 L 75 65 L 75 67 L 48.003906 67 Z M 48.003906 65 "/></clipPath><clipPath id="58233ea143"><path d="M 48.003906 32.992188 L 75 32.992188 L 75 34 L 48.003906 34 Z M 48.003906 32.992188 "/></clipPath><clipPath id="e635218e5e"><path d="M 48.003906 47 L 75 47 L 75 48 L 48.003906 48 Z M 48.003906 47 "/></clipPath><clipPath id="d341158026"><path d="M 48.003906 45 L 75 45 L 75 46 L 48.003906 46 Z M 48.003906 45 "/></clipPath><clipPath id="9df17a3284"><path d="M 48.003906 42 L 75 42 L 75 44 L 48.003906 44 Z M 48.003906 42 "/></clipPath><clipPath id="4e97049c62"><path d="M 48.003906 51 L 75 51 L 75 53 L 48.003906 53 Z M 48.003906 51 "/></clipPath><clipPath id="50ce47ff02"><path d="M 48.003906 61 L 75 61 L 75 63 L 48.003906 63 Z M 48.003906 61 "/></clipPath><clipPath id="41890b17e7"><path d="M 48.003906 62 L 75 62 L 75 64 L 48.003906 64 Z M 48.003906 62 "/></clipPath><clipPath id="94ec4fe08c"><path d="M 48.003906 68 L 75 68 L 75 69 L 48.003906 69 Z M 48.003906 68 "/></clipPath><clipPath id="344e007f6a"><path d="M 48.003906 40 L 75 40 L 75 42 L 48.003906 42 Z M 48.003906 40 "/></clipPath><clipPath id="6a752f445f"><path d="M 48.003906 57 L 75 57 L 75 61 L 48.003906 61 Z M 48.003906 57 "/></clipPath><clipPath id="d547f57eb2"><path d="M 48.003906 34 L 75 34 L 75 39 L 48.003906 39 Z M 48.003906 34 "/></clipPath><clipPath id="597fd07a80"><path d="M 48.003906 70 L 75 70 L 75 72 L 48.003906 72 Z M 48.003906 70 "/></clipPath><clipPath id="1686a433db"><path d="M 48.003906 73 L 75 73 L 75 74.992188 L 48.003906 74.992188 Z M 48.003906 73 "/></clipPath></defs><g id="d6697e6bab"><g clip-rule="nonzero" clip-path="url(#86cfbde767)"><path style=" stroke:none;fill-rule:nonzero;fill:#ffffff;fill-opacity:1;" d="M 48.003906 55.257812 L 48.003906 54.382812 L 74.773438 54.382812 L 74.773438 55.257812 Z M 48.003906 55.257812 "/></g><g clip-rule="nonzero" clip-path="url(#e97d84691d)"><path style=" stroke:none;fill-rule:nonzero;fill:#ffffff;fill-opacity:1;" d="M 48.003906 50.785156 L 48.003906 49.523438 L 74.773438 49.523438 L 74.773438 50.785156 Z M 48.003906 50.785156 "/></g><g clip-rule="nonzero" clip-path="url(#ad7111fb78)"><path style=" stroke:none;fill-rule:nonzero;fill:#ffffff;fill-opacity:1;" d="M 48.003906 66.242188 L 48.003906 65.175781 L 74.773438 65.175781 L 74.773438 66.242188 Z M 48.003906 66.242188 "/></g><g clip-rule="nonzero" clip-path="url(#58233ea143)"><path style=" stroke:none;fill-rule:nonzero;fill:#ffffff;fill-opacity:1;" d="M 48.003906 33.867188 L 48.003906 32.992188 L 74.773438 32.992188 L 74.773438 33.867188 Z M 48.003906 33.867188 "/></g><g clip-rule="nonzero" clip-path="url(#e635218e5e)"><path style=" stroke:none;fill-rule:nonzero;fill:#ffffff;fill-opacity:1;" d="M 48.003906 47.773438 L 48.003906 47.285156 L 74.773438 47.285156 L 74.773438 47.773438 Z M 48.003906 47.773438 "/></g><g clip-rule="nonzero" clip-path="url(#d341158026)"><path style=" stroke:none;fill-rule:nonzero;fill:#ffffff;fill-opacity:1;" d="M 48.003906 45.925781 L 48.003906 45.535156 L 74.773438 45.535156 L 74.773438 45.925781 Z M 48.003906 45.925781 "/></g><g clip-rule="nonzero" clip-path="url(#9df17a3284)"><path style=" stroke:none;fill-rule:nonzero;fill:#ffffff;fill-opacity:1;" d="M 48.003906 43.980469 L 48.003906 42.8125 L 74.773438 42.8125 L 74.773438 43.980469 Z M 48.003906 43.980469 "/></g><g clip-rule="nonzero" clip-path="url(#4e97049c62)"><path style=" stroke:none;fill-rule:nonzero;fill:#ffffff;fill-opacity:1;" d="M 48.003906 52.339844 L 48.003906 51.855469 L 74.773438 51.855469 L 74.773438 52.339844 Z M 48.003906 52.339844 "/></g><g clip-rule="nonzero" clip-path="url(#50ce47ff02)"><path style=" stroke:none;fill-rule:nonzero;fill:#ffffff;fill-opacity:1;" d="M 48.003906 62.0625 L 48.003906 61.578125 L 74.773438 61.578125 L 74.773438 62.0625 Z M 48.003906 62.0625 "/></g><g clip-rule="nonzero" clip-path="url(#41890b17e7)"><path style=" stroke:none;fill-rule:nonzero;fill:#ffffff;fill-opacity:1;" d="M 48.003906 63.425781 L 48.003906 62.9375 L 74.773438 62.9375 L 74.773438 63.425781 Z M 48.003906 63.425781 "/></g><g clip-rule="nonzero" clip-path="url(#94ec4fe08c)"><path style=" stroke:none;fill-rule:nonzero;fill:#ffffff;fill-opacity:1;" d="M 48.003906 68.964844 L 48.003906 68.480469 L 74.773438 68.480469 L 74.773438 68.964844 Z M 48.003906 68.964844 "/></g><g clip-rule="nonzero" clip-path="url(#344e007f6a)"><path style=" stroke:none;fill-rule:nonzero;fill:#ffffff;fill-opacity:1;" d="M 48.003906 41.453125 L 48.003906 40.382812 L 74.773438 40.382812 L 74.773438 41.453125 Z M 48.003906 41.453125 "/></g><g clip-rule="nonzero" clip-path="url(#6a752f445f)"><path style=" stroke:none;fill-rule:nonzero;fill:#ffffff;fill-opacity:1;" d="M 48.003906 60.3125 L 48.003906 57.007812 L 74.773438 57.007812 L 74.773438 60.3125 Z M 48.003906 60.3125 "/></g><g clip-rule="nonzero" clip-path="url(#d547f57eb2)"><path style=" stroke:none;fill-rule:nonzero;fill:#ffffff;fill-opacity:1;" d="M 48.003906 38.144531 L 48.003906 34.839844 L 74.773438 34.839844 L 74.773438 38.144531 Z M 48.003906 38.144531 "/></g><g clip-rule="nonzero" clip-path="url(#597fd07a80)"><path style=" stroke:none;fill-rule:nonzero;fill:#ffffff;fill-opacity:1;" d="M 48.003906 71.6875 L 48.003906 70.8125 L 74.773438 70.8125 L 74.773438 71.6875 Z M 48.003906 71.6875 "/></g><g clip-rule="nonzero" clip-path="url(#1686a433db)"><path style=" stroke:none;fill-rule:nonzero;fill:#ffffff;fill-opacity:1;" d="M 48.003906 74.992188 L 48.003906 73.144531 L 74.773438 73.144531 L 74.773438 74.992188 Z M 48.003906 74.992188 "/></g><path style="fill:none;stroke-width:4;stroke-linecap:butt;stroke-linejoin:miter;stroke:#ffffff;stroke-opacity:1;stroke-miterlimit:4;" d="M -0.00256776 1.99743 L 26.981809 1.99743 " transform="matrix(0,0.75,-0.75,0,67.494166,7.505832)"/></g></svg>