<svg xmlns="http://www.w3.org/2000/svg" xmlns:xlink="http://www.w3.org/1999/xlink" width="100" zoomAndPan="magnify" viewBox="0 0 75 74.999997" height="100" preserveAspectRatio="xMidYMid meet" version="1.2"><g id="9d4dfe922d"><path style=" stroke:none;fill-rule:nonzero;fill:#ffffff;fill-opacity:1;" d="M 39.863281 1.398438 C 18.058594 0.00390625 0.00390625 18.054688 1.398438 39.863281 C 2.550781 57.890625 17.109375 72.449219 35.136719 73.601562 C 56.945312 74.996094 74.996094 56.945312 73.601562 35.136719 C 72.449219 17.109375 57.890625 2.550781 39.863281 1.398438 Z M 53.882812 55.453125 C 55.304688 50.5625 56.152344 44.941406 56.265625 38.890625 L 70.859375 38.890625 C 70.539062 46.648438 67.5625 53.722656 62.816406 59.242188 C 60.640625 57.714844 57.59375 56.425781 53.882812 55.453125 Z M 12.183594 59.242188 C 7.4375 53.722656 4.460938 46.648438 4.140625 38.890625 L 18.734375 38.890625 C 18.847656 44.941406 19.695312 50.5625 21.121094 55.453125 C 17.402344 56.425781 14.359375 57.714844 12.183594 59.242188 Z M 21.113281 19.574219 C 19.691406 24.457031 18.847656 30.070312 18.734375 36.109375 L 4.140625 36.109375 C 4.457031 28.390625 7.410156 21.34375 12.117188 15.835938 C 14.328125 17.335938 17.394531 18.609375 21.113281 19.574219 Z M 36.109375 36.109375 L 21.515625 36.109375 C 21.636719 30.351562 22.492188 24.914062 23.890625 20.210938 C 27.652344 20.972656 31.824219 21.402344 36.109375 21.480469 Z M 36.109375 38.890625 L 36.109375 53.519531 C 31.8125 53.597656 27.644531 54.035156 23.894531 54.804688 C 22.492188 50.097656 21.636719 44.65625 21.515625 38.890625 Z M 38.890625 38.890625 L 53.484375 38.890625 C 53.363281 44.65625 52.507812 50.097656 51.105469 54.804688 C 47.355469 54.035156 43.183594 53.597656 38.890625 53.519531 Z M 38.890625 36.109375 L 38.890625 21.480469 C 43.175781 21.402344 47.347656 20.96875 51.109375 20.210938 C 52.507812 24.914062 53.363281 30.351562 53.484375 36.109375 Z M 38.890625 18.699219 L 38.890625 4.246094 C 43.460938 5.113281 47.550781 10.1875 50.230469 17.554688 C 46.734375 18.234375 42.867188 18.625 38.890625 18.699219 Z M 36.109375 4.246094 L 36.109375 18.699219 C 32.132812 18.625 28.265625 18.234375 24.769531 17.554688 C 27.449219 10.1875 31.539062 5.113281 36.109375 4.246094 Z M 36.109375 56.304688 L 36.109375 70.753906 C 31.542969 69.886719 27.453125 64.820312 24.773438 57.460938 C 28.257812 56.769531 32.125 56.378906 36.109375 56.304688 Z M 38.890625 70.753906 L 38.890625 56.304688 C 42.875 56.378906 46.738281 56.769531 50.226562 57.460938 C 47.546875 64.820312 43.457031 69.886719 38.890625 70.753906 Z M 56.265625 36.109375 C 56.152344 30.070312 55.308594 24.457031 53.890625 19.574219 C 57.605469 18.609375 60.671875 17.335938 62.882812 15.835938 C 67.589844 21.34375 70.542969 28.390625 70.859375 36.109375 Z M 60.960938 13.761719 C 59.011719 14.996094 56.285156 16.082031 53.039062 16.917969 C 51.292969 11.980469 48.921875 7.964844 46.128906 5.242188 C 51.808594 6.761719 56.894531 9.742188 60.960938 13.761719 Z M 21.960938 16.917969 C 18.714844 16.085938 15.988281 14.996094 14.039062 13.761719 C 18.105469 9.742188 23.191406 6.761719 28.871094 5.242188 C 26.078125 7.964844 23.707031 11.980469 21.960938 16.917969 Z M 14.109375 61.304688 C 16.015625 60.054688 18.722656 58.949219 21.96875 58.105469 C 23.714844 63.03125 26.082031 67.039062 28.871094 69.757812 C 23.222656 68.246094 18.164062 65.289062 14.109375 61.304688 Z M 53.03125 58.105469 C 56.277344 58.949219 58.984375 60.054688 60.890625 61.304688 C 56.835938 65.289062 51.777344 68.246094 46.128906 69.757812 C 48.917969 67.039062 51.285156 63.03125 53.03125 58.105469 Z M 53.03125 58.105469 "/></g></svg>